<svg xmlns="http://www.w3.org/2000/svg" xml:space="preserve" style="fill-rule:evenodd;clip-rule:evenodd;stroke-linejoin:round;stroke-miterlimit:2" viewBox="0 0 3000 2000"><circle cx="773.954" cy="994.898" r="622.232" style="fill:#243bbd" transform="translate(1233.023 -377.748) scale(1.14115)"/><path d="M251.5 1021.24h134.799v-41.861h-84.842v-44.095h69.492v-41.863h-69.492v-38.514h81.772v-41.584H251.5v207.917ZM392.997 1021.24h51.631l10.884-25.115c3.907-9.21 7.814-18.42 11.722-27.072h1.395c5.024 8.652 9.768 18.141 14.513 27.072l14.512 25.115h53.306l-48.561-77.025 45.77-81.773h-51.352l-9.768 24.281c-3.349 9.21-7.256 18.419-10.326 27.35h-1.396c-4.465-8.931-8.931-18.14-13.117-27.35l-13.117-24.281h-53.305l45.77 76.191-48.561 82.607ZM638.593 1025.15c18.419 0 40.188-6.42 56.654-18.14l-16.466-29.863c-11.443 6.698-22.048 10.047-33.49 10.047-20.095 0-35.165-8.931-39.631-30.7h93.215c1.117-3.907 2.233-12.559 2.233-21.489 0-43.259-22.327-76.47-68.097-76.47-38.235 0-75.353 31.816-75.353 83.168 0 52.747 35.164 83.447 80.935 83.447Zm-33.77-101.309c3.349-18.699 15.35-27.35 29.025-27.35 18.141 0 25.118 11.721 25.118 27.35h-54.143ZM802.974 1025.15c16.746 0 36.84-5.02 52.469-18.7l-19.257-32.652c-8.094 6.419-17.583 11.163-27.63 11.163-19.257 0-33.769-16.745-33.769-43.258 0-26.234 13.675-42.98 35.723-42.98 6.698 0 12.838 2.512 20.094 8.373l23.164-31.537c-12.001-10.326-27.071-17.024-46.328-17.024-44.375 0-83.447 30.7-83.447 83.168 0 52.747 34.328 83.447 78.981 83.447ZM930.796 1025.15c21.489 0 36.281-10.05 49.398-25.676h1.116l3.629 21.766h40.471V862.442h-49.681v104.099c-8.373 11.722-15.35 16.187-26.513 16.187-12.559 0-18.42-6.419-18.42-28.187v-92.099h-49.677v98.239c0 39.629 14.791 64.469 49.677 64.469ZM1127.83 1025.15c16.19 0 27.63-3.35 36-5.86l-7.81-36.003c-3.91 1.395-9.49 3.07-14.51 3.07-11.73 0-20.1-6.978-20.1-24.56v-60.562h37.4v-38.793h-37.4V820.3h-41.02l-5.59 42.142-24.55 1.954v36.839h21.48v61.12c0 37.398 16.19 62.795 56.1 62.795ZM1189.51 1021.24h49.68V862.442h-49.68v158.798Zm24.84-180.846c16.46 0 27.63-10.047 27.63-25.675 0-15.35-11.17-25.397-27.63-25.397-16.75 0-27.63 10.047-27.63 25.397 0 15.628 10.88 25.675 27.63 25.675ZM1348.03 1025.15c40.19 0 77.59-30.7 77.59-83.447 0-52.468-37.4-83.168-77.59-83.168-40.47 0-77.87 30.7-77.87 83.168 0 52.747 37.4 83.447 77.87 83.447Zm0-40.189c-18.7 0-27.07-16.745-27.07-43.258 0-26.234 8.37-42.98 27.07-42.98 18.42 0 26.79 16.746 26.79 42.98 0 26.513-8.37 43.258-26.79 43.258ZM1456.87 1021.24h49.68V915.19c9.49-9.21 16.19-14.234 27.35-14.234 12.56 0 18.42 6.14 18.42 28.188v92.096H1602v-98.236c0-39.63-14.79-64.469-49.4-64.469-21.49 0-37.68 10.884-50.79 23.722h-.84l-3.63-19.815h-40.47v158.798Z" style="fill:#fff;fill-rule:nonzero" transform="translate(1579.586 215.68) scale(.57905)"/><circle cx="773.954" cy="994.898" r="622.232" style="fill:#4460ff" transform="translate(.581 -377.748) scale(1.14115)"/><path d="M302.015 917.422c5.302-20.652 10.884-44.933 15.908-66.701h1.116c5.582 21.21 10.884 46.049 16.466 66.701l4.465 17.583h-42.421l4.466-17.583Zm-76.749 103.818h50.794l12-47.721h61.399l12.001 47.721h52.468l-64.469-207.917h-59.724l-64.469 207.917ZM488.723 1025.15c15.071 0 30.421-8.09 41.584-19.26h1.117l3.628 15.35h40.467V798.252h-49.677v53.027l1.674 23.722c-10.326-10.047-20.652-16.466-38.234-16.466-32.933 0-65.586 31.258-65.586 83.168 0 51.91 25.397 83.447 65.027 83.447Zm13.117-40.747c-17.024 0-27.071-12.838-27.071-43.258 0-29.304 12.559-42.142 26.234-42.142 8.373 0 17.303 2.511 24.839 9.488v62.516c-6.977 10.326-14.513 13.396-24.002 13.396ZM655.617 1025.15c17.582 0 32.374-8.09 45.491-19.82h1.395l3.349 15.91h40.468v-90.143c0-49.677-23.164-72.562-64.19-72.562-24.839 0-47.445 8.373-68.376 20.932l17.303 32.653c15.908-8.931 29.025-13.955 41.584-13.955 16.187 0 22.885 7.536 24.002 20.374-61.958 6.698-88.192 24.838-88.192 58.329 0 26.512 17.862 48.282 47.166 48.282Zm17.024-38.514c-10.326 0-17.024-4.466-17.024-13.676 0-11.163 10.047-20.373 41.026-24.28v25.397c-7.257 7.814-13.955 12.559-24.002 12.559ZM784.555 1079.01h49.677v-45.49l-1.674-24.84c10.605 10.61 23.443 16.47 36.839 16.47 34.048 0 66.701-31.258 66.701-85.959 0-48.84-24.001-80.656-61.957-80.656-16.466 0-32.095 8.094-44.653 19.257h-.838l-3.628-15.35h-40.467v216.568Zm73.12-94.607c-7.535 0-15.629-2.233-23.443-9.21v-62.794c8.373-9.21 15.908-13.396 25.118-13.396 17.582 0 25.676 13.117 25.676 41.025 0 31.816-12.28 44.375-27.351 44.375ZM1021.78 1025.15c16.18 0 27.63-3.35 36-5.86l-7.81-36.003c-3.91 1.395-9.49 3.07-14.52 3.07-11.72 0-20.09-6.978-20.09-24.56v-60.562h37.4v-38.793h-37.4V820.3h-41.027l-5.581 42.142-24.56 1.954v36.839h21.49v61.12c0 37.398 16.187 62.795 56.098 62.795ZM1117.23 1025.15c17.58 0 32.37-8.09 45.49-19.82h1.39l3.35 15.91h40.47v-90.143c0-49.677-23.17-72.562-64.19-72.562-24.84 0-47.45 8.373-68.38 20.932l17.31 32.653c15.9-8.931 29.02-13.955 41.58-13.955 16.19 0 22.88 7.536 24 20.374-61.96 6.698-88.19 24.838-88.19 58.329 0 26.512 17.86 48.282 47.17 48.282Zm17.02-38.514c-10.33 0-17.02-4.466-17.02-13.676 0-11.163 10.04-20.373 41.02-24.28v25.397c-7.25 7.814-13.95 12.559-24 12.559ZM1331.01 1025.15c34.04 0 66.7-31.258 66.7-86.238 0-48.561-24.28-80.377-62.24-80.377-14.51 0-29.3 6.419-41.03 17.024l1.4-23.722v-53.585h-49.68v222.988h38.8l3.9-17.02h1.4c12.28 13.67 26.79 20.93 40.75 20.93Zm-11.73-40.747c-7.53 0-15.9-2.233-23.44-9.21v-62.794c8.37-9.21 15.91-13.396 25.12-13.396 17.58 0 25.67 13.117 25.67 41.025 0 31.816-12.28 44.375-27.35 44.375ZM1429.8 1021.24h49.68V862.442h-49.68v158.798Zm24.84-180.846c16.47 0 27.63-10.047 27.63-25.675 0-15.35-11.16-25.397-27.63-25.397-16.75 0-27.63 10.047-27.63 25.397 0 15.628 10.88 25.675 27.63 25.675ZM1564.6 1025.15c11.16 0 19.26-1.95 24.56-4.19l-5.86-36.557c-2.79.558-3.91.558-5.58.558-3.91 0-8.65-3.07-8.65-13.675V798.252h-49.68v171.359c0 33.209 11.16 55.539 45.21 55.539ZM1612.05 1021.24h49.67V862.442h-49.67v158.798Zm24.83-180.846c16.47 0 27.63-10.047 27.63-25.675 0-15.35-11.16-25.397-27.63-25.397-16.74 0-27.63 10.047-27.63 25.397 0 15.628 10.89 25.675 27.63 25.675ZM1764.15 1025.15c16.18 0 27.63-3.35 36-5.86l-7.81-36.003c-3.91 1.395-9.49 3.07-14.52 3.07-11.72 0-20.09-6.978-20.09-24.56v-60.562h37.4v-38.793h-37.4V820.3h-41.03l-5.58 42.142-24.56 1.954v36.839h21.49v61.12c0 37.398 16.19 62.795 56.1 62.795ZM1845.64 1082.36c37.68 0 54.98-20.09 70.33-60.84l54.7-159.078h-47.44l-18.42 65.865c-3.63 15.07-7.26 29.862-10.33 44.932h-1.39c-4.19-15.628-7.54-30.42-12.28-44.932l-21.21-65.865h-49.96l60.84 154.058-2.23 8.09c-3.63 11.17-11.45 18.98-26.52 18.98-3.62 0-7.81-1.4-10.6-1.95l-8.93 37.67c6.69 1.96 13.11 3.07 23.44 3.07Z" style="fill:#fff;fill-rule:nonzero" transform="translate(248 215.68) scale(.57905)"/><path d="M374.895 842.242c17.615 0 29.79 8.29 29.79 23.314 0 14.507-12.175 22.796-29.79 22.796-17.356 0-29.79-8.289-29.79-22.796 0-15.024 12.434-23.314 29.79-23.314Zm0 74.087c36.008 0 62.43-21.242 62.43-50.773 0-30.049-26.422-51.032-62.43-51.032-36.007 0-62.689 20.983-62.689 51.032 0 29.531 26.682 50.773 62.689 50.773Zm74.605 5.958c-50.514 7.512-109.576 8.031-151.282 8.031l3.886 27.976c16.838 0 36.266-.259 56.73-1.036v79.012h34.194v-81.084c19.429-1.813 39.375-4.145 58.545-8.031l-2.073-24.868Zm13.471-117.347v238.32h34.193V804.94h-34.193ZM548.973 829.549v27.2H628.5c-4.922 52.845-31.344 90.147-92.22 119.419l17.874 26.942c84.708-40.93 109.317-100.51 109.317-173.561H548.973Zm151.024-24.868v238.579h34.453V804.681h-34.453ZM930.029 843.796H801.024v56.99h166.825v-23.055H834.7v-12.434h129.004v-56.213H800.506v23.055h129.523v11.657Zm-97.401 161.644h131.854v-56.73H798.434v23.055h132.113v12.175H798.693v57.51h172.265v-23.06h-138.33v-12.95Zm-58.544-93.256v24.61h216.043v-24.61H774.084ZM1098.15 829.549v27.2h79.53c-4.93 52.845-31.35 90.147-92.22 119.419l17.87 26.942c84.71-40.93 109.32-100.51 109.32-173.561h-114.5Zm151.02-24.868v238.579h34.45V804.681h-34.45ZM1472.47 831.362h-54.4v-25.645h-34.19v25.645h-54.66v26.682h143.25v-26.682Zm-98.18 80.822c0-12.175 10.88-18.91 26.68-18.91 16.06 0 26.68 6.735 26.68 18.91 0 12.435-10.62 19.17-26.68 19.17-15.8 0-26.68-6.735-26.68-19.17Zm43.78 43.261c25.39-4.922 41.97-20.983 41.97-43.261 0-26.681-24.36-44.814-59.07-44.814-34.97 0-59.32 18.133-59.32 44.814 0 22.278 16.58 38.339 42.23 43.261v20.205c-21.25.518-41.45.518-59.33.518l4.15 27.722c42.22 0 97.4-.26 149.47-9.847l-2.59-24.869c-18.65 2.591-38.08 3.886-57.51 5.181v-18.91Zm69.94-150.505v238.58h34.19V804.94h-34.19ZM1686.44 989.38v-35.489h72.27v-27.459h-138.33V899.75h132.89v-79.527h-167.08v27.2h133.41v25.646h-133.15v80.822h65.8v35.489h-90.67v27.98h216.04v-27.98h-91.18ZM1830.73 1024.87c13.73 0 23.83-10.88 23.83-24.87 0-14.247-10.1-24.868-23.83-24.868-13.47 0-23.58 10.621-23.58 24.868 0 13.99 10.11 24.87 23.58 24.87Z" style="fill-rule:nonzero" transform="translate(260.495 1119.23) scale(.57905)"/><path d="M220.609 960.617c-19.67-6.459-30.973-22.606-30.973-39.634v-14.239h-15.267v13.065c0 19.083-11.303 37.138-32.147 44.331l8.073 12.037c15.267-5.578 26.13-17.028 32.001-31.413 5.578 12.477 16.147 22.606 30.386 27.743l7.927-11.89Zm-16.294 60.033c-18.496 0-29.212-4.54-29.212-13.06 0-8.22 10.716-12.917 29.212-12.917 18.496 0 29.212 4.697 29.212 12.917 0 8.52-10.716 13.06-29.212 13.06Zm0-37.867c-27.303 0-44.184 9.248-44.184 24.807 0 15.71 16.881 24.96 44.184 24.96 27.45 0 44.184-9.25 44.184-24.96 0-15.559-16.734-24.807-44.184-24.807Zm42.717-50.056v-32.882h-15.12v79.708h15.12v-34.349h18.789v-12.477h-18.789ZM349.199 910.561h-30.093v-11.597H303.84v11.597h-30.386v11.156h75.745v-11.156Zm-55.194 34.496c0-5.578 6.752-8.807 17.321-8.807 10.716 0 17.322 3.229 17.322 8.807 0 5.725-6.606 8.954-17.322 8.954-10.569 0-17.321-3.229-17.321-8.954Zm58.864 24.221c-10.716 1.468-22.313 2.349-33.763 2.936v-8.661c14.68-1.762 23.781-8.514 23.781-18.496 0-11.743-12.478-18.789-31.561-18.789-19.082 0-31.56 7.046-31.56 18.789 0 10.129 9.101 16.734 24.074 18.496v9.248c-12.184.44-23.78.44-33.762.44l1.761 11.744c23.194 0 54.313-.441 82.204-5.432l-1.174-10.275Zm-21.138 52.262c-19.23 0-29.065-3.23-29.065-9.55 0-6.45 9.835-9.68 29.065-9.68 19.083 0 28.918 3.23 28.918 9.68 0 6.32-9.835 9.55-28.918 9.55Zm0-30.243c-28.038 0-44.332 7.193-44.332 20.693 0 13.36 16.294 20.7 44.332 20.7 27.89 0 44.184-7.34 44.184-20.7 0-13.5-16.294-20.693-44.184-20.693Zm43.303-52.405v-38.753h-15.119v89.396h15.119v-38.166h18.203v-12.477h-18.203ZM527.405 935.516v16.294h-27.597v-16.294h27.597Zm-42.423 28.624h-31.267v-21.578h31.267v21.578Zm14.826 0h27.597v33.909h15.119v-97.91h-15.119v23.193h-27.597V908.8h-14.826v21.872h-31.267V908.8h-14.973v67.671h61.066V964.14Zm-28.331 53.58v-29.212H456.21v41.542h89.397v-12.33h-74.13ZM639.994 915.258h-31.707v-14.826h-15.12v14.826h-32v12.184h78.827v-12.184Zm-56.808 43.598c0-8.221 7.192-13.212 17.615-13.212 10.422 0 17.468 4.991 17.468 13.212 0 8.073-7.046 13.064-17.468 13.064-10.423 0-17.615-4.991-17.615-13.064Zm25.101 24.074c14.679-2.349 24.221-11.45 24.221-24.074 0-14.973-12.918-24.808-31.707-24.808-18.937 0-31.854 9.835-31.854 24.808 0 12.624 9.541 21.578 24.22 24.074v12.917c-12.33.441-24.22.441-34.349.441l2.055 12.472c22.753 0 53.432-.29 81.763-5.28l-1.174-11.156c-10.569 1.615-21.872 2.349-33.175 2.936v-12.33Zm74.57-27.597h-18.789v-55.488h-15.12v132.705h15.12v-64.74h18.789v-12.477ZM717.941 990.122c-9.101 0-14.679-11.89-14.679-32.881s5.578-32.735 14.679-32.735c9.101 0 14.679 11.744 14.679 32.735s-5.578 32.881-14.679 32.881Zm42.423-39.927h-14.239c-1.615-24.808-12.331-39.928-28.184-39.928-17.175 0-28.478 17.909-28.478 46.974 0 29.065 11.303 47.119 28.478 47.119 16.147 0 27.009-15.852 28.331-41.688h14.092v63.558h14.092V902.487h-14.092v47.708Zm26.569-50.203V1032.4h14.386V899.992h-14.386ZM928.441 962.819c-19.817-6.899-31.12-23.487-31.12-39.927v-2.496h27.597v-12.184h-70.901v12.184h28.037v2.642c0 17.909-12.037 35.377-32.587 42.423l7.779 11.89c15.707-5.431 26.863-16.881 32.735-31.119 5.725 12.77 16.294 23.193 30.973 28.33l7.487-11.743Zm-58.424 35.083h74.277v34.648h15.12v-46.831h-89.397v12.183Zm74.277-98.057v33.322h-23.193v12.477h23.193v33.469h15.12v-79.268h-15.12ZM977.176 963.259v12.184h119.934v-12.184H977.176Zm59.744 21.432c-28.48 0-45.652 8.808-45.652 24.069 0 15.27 17.172 23.93 45.652 23.93 28.63 0 45.65-8.66 45.65-23.93 0-15.261-17.02-24.069-45.65-24.069Zm0 11.743c19.38 0 30.39 4.256 30.39 12.326 0 8.08-11.01 12.34-30.39 12.34-19.38 0-30.24-4.26-30.24-12.34 0-8.07 10.86-12.326 30.24-12.326Zm.29-93.359c-28.91 0-47.263 9.688-47.263 25.688 0 15.854 18.353 25.542 47.263 25.542 28.78 0 47.27-9.688 47.27-25.542 0-16-18.49-25.688-47.27-25.688Zm0 11.89c19.67 0 31.56 4.991 31.56 13.798 0 8.661-11.89 13.652-31.56 13.652-19.67 0-31.7-4.991-31.7-13.652 0-8.807 12.03-13.798 31.7-13.798ZM1143.64 991.59c-10.72 0-18.5-7.339-18.5-18.496 0-11.156 7.78-18.495 18.5-18.495 10.71 0 18.49 7.339 18.49 18.495 0 11.157-7.78 18.496-18.49 18.496Zm0-49.469c-19.08 0-32.88 12.918-32.88 30.973 0 18.203 13.8 30.976 32.88 30.976 18.93 0 32.88-12.773 32.88-30.976 0-18.055-13.95-30.973-32.88-30.973Zm7.34-40.074h-15.12v18.349h-31.56v12.331h77.65v-12.331h-30.97v-18.349Zm77.36 51.231h-20.41v-53.286h-15.26v132.698h15.26v-66.788h20.41v-12.624ZM1339.16 938.011h-75.89v-33.322h-15.12v45.653h91.01v-12.331Zm-76.77 52.552h-15.12v39.047h92.63v-12.18h-77.51v-26.867Zm-29.8-24.368v12.184h120.37v-12.184h-120.37ZM1474.95 956.213c-17.62 2.936-32.74 3.523-58.28 3.523v-14.385h44.63v-11.89h-44.63v-13.652h48.44v-12.184h-63.41v64.148h11.01c28.48 0 44.77-.44 63.71-3.523l-1.47-12.037Zm-43.45 40.955h57.1v21.722h-57.1v-21.722Zm-14.83 33.762h86.76v-45.799h-86.76v45.799Zm71.64-130.938v78.974h15.12v-78.974h-15.12Z" style="fill:#404040;fill-rule:nonzero" transform="translate(407.323 1244.037) scale(.57905)"/><path d="M-23.567 911.148H-53.66v-12.33h-15.266v12.33h-30.386v11.01h75.745v-11.01Zm-55.194 34.937c0-6.019 6.752-9.689 17.321-9.689 10.569 0 17.322 3.67 17.322 9.689 0 5.871-6.753 9.394-17.322 9.394-10.569 0-17.321-3.523-17.321-9.394Zm58.863 24.367c-10.715 1.615-22.312 2.349-33.762 2.936v-8.22c14.679-1.762 23.781-8.661 23.781-19.083 0-12.331-12.478-19.817-31.561-19.817S-93 933.754-93 946.085c0 10.422 9.101 17.468 24.074 19.083v8.807c-12.184.294-23.781.294-33.762.294l1.761 12.037c23.193-.147 54.166-.294 82.204-5.285l-1.175-10.569Zm-66.35 37.138h73.396v25.1h15.12v-37.136h-88.516v12.036ZM20.47 939.185H2.268v-39.046h-15.12v89.543h15.12v-38.019H20.47v-12.478ZM135.408 899.992h-15.119v96.296h15.119v-96.296Zm-91.891 41.983c0-12.184 8.66-20.111 20.404-20.111 11.596 0 20.404 7.927 20.404 20.111 0 12.036-8.808 20.11-20.404 20.11-11.744 0-20.404-8.074-20.404-20.11Zm55.487 0c0-19.377-15.12-33.175-35.083-33.175-19.964 0-35.23 13.798-35.23 33.175 0 19.229 15.266 33.175 35.23 33.175 19.963 0 35.083-13.946 35.083-33.175Zm-34.937 75.745v-31.121H48.801v43.451h90.424v-12.33H64.067ZM205.135 967.81h27.009v-12.184h-53.285v-31.267h52.698v-12.33h-67.818v55.781h26.276v24.514c-12.477.294-24.514.441-35.524.441l1.909 12.475c24.954.15 55.781-.29 84.405-4.84l-1.174-11.158c-11.01 1.321-22.753 2.055-34.496 2.495V967.81Zm42.569-68.112v133.142h15.267V899.698h-15.267ZM330.495 925.681H360v-12.478h-74.276v12.478h29.505v12.624c0 22.753-13.652 47.414-34.203 56.955l8.661 12.04c15.56-7.489 27.45-23.196 33.322-41.692 6.165 17.175 18.055 31.56 33.468 38.312l8.368-11.889c-20.698-8.808-34.35-31.707-34.35-53.726v-12.624Zm44.919-25.689v132.558h15.266V899.992h-15.266ZM459.379 937.864c0-11.009 8.66-18.495 20.11-18.495s20.111 7.486 20.111 18.495c0 10.863-8.661 18.349-20.111 18.349-11.45 0-20.11-7.486-20.11-18.349Zm54.9 0c0-18.055-14.826-30.826-34.79-30.826-19.963 0-34.789 12.771-34.789 30.826 0 17.909 14.826 30.827 34.789 30.827 19.964 0 34.79-12.918 34.79-30.827Zm-43.744 41.396h-14.679v49.91h6.899c10.716 0 22.166-.59 34.203-4.7l-2.496-12.03c-7.927 2.64-16.294 3.81-23.927 4.25v-37.43Zm54.9 42.86c-6.752 0-11.743-3.08-11.743-8.22 0-5.28 4.991-8.22 11.743-8.22 6.606 0 11.597 2.94 11.597 8.22 0 5.14-4.991 8.22-11.597 8.22Zm0-27.007c-14.679 0-25.101 7.337-25.101 18.787s10.422 18.79 25.101 18.79c14.533 0 24.955-7.34 24.955-18.79s-10.422-18.787-24.955-18.787Zm7.34-25.982h-14.679v10.863h-25.983v11.009h66.497v-11.009h-25.835v-10.863Zm13.798-40.368v-28.771h-15.119v65.616h15.119v-24.367h18.79v-12.478h-18.79ZM630.685 916.286c19.377 0 31.56 5.431 31.56 14.679 0 9.395-12.183 14.826-31.56 14.826-19.523 0-31.707-5.431-31.707-14.826 0-9.248 12.184-14.679 31.707-14.679Zm0 41.689c28.625 0 47.267-10.129 47.267-27.01 0-16.734-18.642-26.863-47.267-26.863-28.624 0-47.267 10.129-47.267 26.863 0 16.881 18.643 27.01 47.267 27.01Zm-29.652 33.468h-15.266v38.607h91.451v-12.33h-76.185v-26.277Zm-30.386-22.752v12.33h119.929v-12.33H570.647ZM803.46 933.314v12.33h23.486v33.322h15.12v-78.974h-15.12v33.322H803.46Zm7.633 29.505c-19.817-6.899-31.12-23.34-31.12-39.927v-1.762h27.597v-12.184h-70.901v12.184h28.037v1.908c0 18.203-11.89 35.818-32.441 43.157l7.78 12.037c15.707-5.578 26.863-17.321 32.735-31.854 5.578 12.771 16.147 23.193 30.826 28.331l7.487-11.89Zm-13.065 58.131c-18.936 0-29.652-4.7-29.652-13.36s10.716-13.357 29.652-13.357c18.643 0 29.505 4.697 29.505 13.357s-10.862 13.36-29.505 13.36Zm0-38.461c-27.743 0-44.771 9.395-44.771 25.101 0 15.85 17.028 25.1 44.771 25.1 27.597 0 44.625-9.25 44.625-25.1 0-15.706-17.028-25.101-44.625-25.101ZM888.452 943.296h62.827v21.725h-62.827v-21.725Zm38.9 60.624v-26.715h38.9V908.8h-14.973v22.312h-62.827V908.8h-14.973v68.405h38.754v26.715h-52.258v12.48H980.05v-12.48h-52.698ZM1055.06 1004.51v-22.608h41.4v-12.184h-79.42v-18.496h76.48V909.24h-91.6v12.184h76.63v17.761h-76.33v42.717h37.72v22.608h-52.256v12.48h120.076v-12.48h-52.7ZM1179.1 923.919h17.62v41.395c-5.88.294-11.89.588-17.62.734v-42.129Zm49.76 38.9c-5.57.734-11.45 1.174-17.47 1.615v-40.515h12.04v-12.33h-70.9v12.33h12.04v42.276c-5.43.147-10.72.147-15.56.147l1.61 12.477c22.61 0 53-.734 79.27-4.991l-1.03-11.009Zm-44.92 25.689h-15.26v41.542h89.25v-12.33h-73.99v-29.212Zm68.7-49.323v-39.193h-15.12v97.617h15.12v-45.946h18.79v-12.478h-18.79ZM1352.76 956.507c-16 3.376-30.24 4.11-55.35 4.257v-37.579h43.9v-12.33h-59.01v62.386h10.71c28.48 0 44.04-.88 61.21-4.55l-1.46-12.184Zm-41.11 29.652h-15.26v43.891h89.25v-12.33h-73.99v-31.561Zm68.7-48.295v-38.019h-15.12v96.002h15.12v-45.505h18.79v-12.478h-18.79ZM1443.18 991.59c-10.72 0-18.5-7.339-18.5-18.496 0-11.156 7.78-18.495 18.5-18.495 10.72 0 18.5 7.339 18.5 18.495 0 11.157-7.78 18.496-18.5 18.496Zm0-49.469c-19.08 0-32.88 12.918-32.88 30.973 0 18.203 13.8 30.976 32.88 30.976 18.94 0 32.88-12.773 32.88-30.976 0-18.055-13.94-30.973-32.88-30.973Zm7.34-40.074h-15.12v18.349h-31.56v12.331h77.65v-12.331h-30.97v-18.349Zm77.36 51.231h-20.4v-53.286h-15.27v132.698h15.27v-66.788h20.4v-12.624ZM1539.77 913.937v12.331h47.27c-2.65 30.533-19.09 53.872-53.88 70.607l8.08 12.035c45.5-22.017 61.36-55.486 61.36-94.973h-62.83Zm86.75-13.945v132.558h15.12V899.992h-15.12ZM1722.23 943.296h62.83v21.725h-62.83v-21.725Zm38.9 60.624v-26.715h38.9V908.8h-14.97v22.312h-62.83V908.8h-14.97v68.405h38.75v26.715h-52.26v12.48h120.08v-12.48h-52.7ZM1841.87 924.8h46.53v-12.331h-61.65v87.631h10.86c23.93 0 41.84-.73 61.95-4.4l-1.62-12.477c-18.49 3.23-34.64 4.11-56.07 4.257V924.8Zm102.9 26.129h-20.7v-51.084h-15.12v132.845h15.12v-69.284h20.7v-12.477ZM552.298 1081.18h-15.119v67.37h15.119v-67.37Zm-92.039 34.35c0-10.57 8.514-17.47 19.964-17.47 11.597 0 20.258 6.9 20.258 17.47 0 10.57-8.661 17.46-20.258 17.46-11.45 0-19.964-6.89-19.964-17.46Zm54.901 0c0-17.47-14.826-29.95-34.937-29.95-19.964 0-34.643 12.48-34.643 29.95 0 17.46 14.679 29.8 34.643 29.8 20.111 0 34.937-12.34 34.937-29.8Zm-34.643 84.84v-11.74h71.781v-34.06h-86.901v11.89h71.928v11.01h-71.634v34.79h90.571v-11.89h-75.745ZM646.686 1137.84c-16.001 3.37-30.24 4.11-55.341 4.26v-37.58h43.891v-12.33h-59.011v62.38h10.716c28.478 0 44.038-.88 61.212-4.55l-1.467-12.18Zm-41.102 29.65h-15.267v43.89h89.25v-12.33h-73.983v-31.56Zm68.698-48.29v-38.02h-15.119v96h15.119v-45.51h18.79v-12.47h-18.79ZM841.479 1081.32h-15.267v67.97h15.267v-67.97Zm-28.625 53.14c-20.404-6.31-32.294-22.46-32.294-39.63v-9.98h-15.413v9.98c0 17.91-11.89 35.08-32.882 41.98l7.487 12.04c16-5.43 27.303-16.44 33.322-30.68 6.018 13.06 17.174 23.19 32.441 28.18l7.339-11.89Zm-43.157 66.35v-11.59h71.782v-33.62h-86.901v11.74h71.928v10.87h-71.635v34.49h90.571v-11.89h-75.745ZM943.94 1128.3h13.798v36.55h14.386v-83.67h-14.386v34.64H943.94v-32h-14.092v76.48h14.092v-32Zm-18.643-32.15h-25.542v-13.65h-14.826v13.65h-25.688v11.89h66.056v-11.89Zm-47.707 40.51c0-7.19 5.871-11.89 14.826-11.89 8.954 0 14.972 4.7 14.972 11.89 0 7.2-6.018 11.89-14.972 11.89-8.955 0-14.826-4.69-14.826-11.89Zm43.303 0c0-13.65-11.743-22.89-28.477-22.89-16.588 0-28.331 9.24-28.331 22.89 0 13.8 11.743 22.9 28.331 22.9 16.734 0 28.477-9.1 28.477-22.9Zm7.193 65.77c-18.936 0-29.799-4.26-29.799-12.19 0-7.92 10.863-12.03 29.799-12.03 19.083 0 29.652 4.11 29.652 12.03 0 7.93-10.569 12.19-29.652 12.19Zm0-35.67c-28.037 0-44.918 8.51-44.918 23.48 0 14.98 16.881 23.64 44.918 23.64 27.891 0 44.772-8.66 44.772-23.64 0-14.97-16.881-23.48-44.772-23.48ZM1026.29 1172.92c-10.72 0-18.5-7.34-18.5-18.49 0-11.16 7.78-18.5 18.5-18.5 10.72 0 18.5 7.34 18.5 18.5 0 11.15-7.78 18.49-18.5 18.49Zm0-49.47c-19.08 0-32.881 12.92-32.881 30.98 0 18.2 13.801 30.97 32.881 30.97 18.94 0 32.88-12.77 32.88-30.97 0-18.06-13.94-30.98-32.88-30.98Zm7.34-40.07h-15.12v18.35h-31.56v12.33h77.65v-12.33h-30.97v-18.35Zm77.36 51.23h-20.4v-53.29h-15.27v132.7h15.27v-66.79h20.4v-12.62ZM1221.82 1119.34h-75.89v-33.32h-15.12v45.65h91.01v-12.33Zm-76.77 52.55h-15.13v39.05h92.63v-12.18h-77.5v-26.87Zm-29.8-24.36v12.18h120.37v-12.18h-120.37ZM1357.6 1137.55c-17.61 2.93-32.73 3.52-58.28 3.52v-14.39h44.63v-11.89h-44.63v-13.65h48.45v-12.18h-63.42v64.15h11.01c28.48 0 44.77-.45 63.71-3.53l-1.47-12.03Zm-43.45 40.95h57.1v21.73h-57.1v-21.73Zm-14.83 33.76h86.76v-45.8h-86.76v45.8Zm71.64-130.94v78.98h15.12v-78.98h-15.12Z" style="fill:#404040;fill-rule:nonzero" transform="translate(1582.893 1245.247) scale(.57905)"/><path d="M145.562 977.464h91.701v36.526h-91.701v-36.526Zm-33.676 63.206H270.68v-89.888H111.886v89.888Zm25.127-135.739c-17.356 0-30.049-11.139-30.049-29.79 0-18.133 12.693-28.754 30.049-28.754 17.615 0 30.308 10.621 30.308 28.754 0 18.651-12.693 29.79-30.308 29.79Zm99.473-99.991v56.212h-38.079c-6.476-25.904-30.827-43.778-61.394-43.778-35.489 0-62.689 24.35-62.689 57.767 0 34.194 27.2 58.285 62.689 58.285 30.826 0 55.177-17.874 61.653-44.556h37.82v51.291h34.194V804.94h-34.194ZM437.764 868.665v27.459h37.044v52.845h34.194V804.94h-34.194v63.725h-37.044Zm15.025 46.628c-38.08-10.103-55.177-34.194-55.695-58.803h47.146v-26.941h-47.146v-25.386H362.9v25.386h-46.628v26.941H362.9c-.518 26.681-17.097 53.622-54.917 64.502l16.061 26.422c27.717-8.03 46.369-24.868 56.989-46.628 10.88 18.911 29.532 33.676 56.213 40.67l15.543-26.163Zm-24.35 102.067c-31.604 0-47.665-5.96-47.665-18.914 0-12.952 16.061-19.169 47.665-19.169 31.085 0 47.405 6.217 47.405 19.169 0 12.954-16.32 18.914-47.405 18.914Zm0-64.247c-50.773 0-81.859 16.579-81.859 45.333 0 28.494 31.086 45.074 81.859 45.074 50.513 0 81.599-16.58 81.599-45.074 0-28.754-31.086-45.333-81.599-45.333ZM683.08 900.009c-32.122 6.476-62.948 8.808-91.443 9.326v-88.594h-34.194V937.83h20.465c33.675 0 70.201-2.332 109.317-10.362l-4.145-27.459Zm-66.834 60.617h-34.194v78.754h161.385v-27.2H616.246v-51.554Zm119.42-88.853V804.94h-34.194v171.488h34.194v-75.901h31.603v-28.754h-31.603ZM1056.62 805.199h-34.19v120.197h34.19V805.199Zm-51.55 90.666c-38.595-11.398-55.692-39.116-55.692-67.352v-17.874h-34.712v17.874c0 29.013-17.356 59.062-56.99 71.237l16.579 26.682c27.977-8.549 47.405-26.682 58.285-49.219 10.621 20.724 29.013 37.303 56.213 45.333l16.317-26.681Zm-73.048 119.415v-14.76h124.858v-64.504H897.828v26.164h125.122v13.988H898.087v65.542h164.753v-26.43H932.022ZM1250.39 891.461H1268v62.689h32.38V804.94H1268v58.803h-17.61v-54.399h-31.86v137.293h31.86v-55.176Zm-38.6-62.171h-41.19v-21.76h-33.67v21.76h-41.19v26.423h116.05V829.29Zm-78.75 75.641c0-11.139 8.55-17.097 21.24-17.097 12.7 0 20.99 5.958 20.99 17.097 0 11.139-8.29 17.356-20.99 17.356-12.69 0-21.24-6.217-21.24-17.356Zm72.53 0c0-24.609-21.24-41.447-51.29-41.447-30.31 0-51.55 16.838-51.55 41.447s21.24 41.706 51.55 41.706c30.05 0 51.29-17.097 51.29-41.706Zm13.99 113.199c-31.86 0-47.92-5.44-47.92-17.87 0-12.435 16.06-17.874 47.92-17.874 31.86 0 47.93 5.439 47.93 17.874 0 12.43-16.07 17.87-47.93 17.87Zm0-61.39c-51.29 0-82.12 15.802-82.12 43.52 0 27.72 30.83 43.26 82.12 43.26 51.29 0 82.12-15.54 82.12-43.26 0-27.718-30.83-43.52-82.12-43.52ZM1457.11 912.961c-23.58 4.404-44.56 5.44-78.75 5.699v-24.868h70.2V818.41h-104.4v27.459h70.72v22.537h-70.46v77.713h18.39c45.34 0 69.95-.777 97.66-5.958l-3.36-27.2Zm-85.49 76.937h129.01v53.882h34.19v-81.082h-163.2v27.2Zm129.01-184.699v32.639h-38.34v27.459h38.34v23.573h-38.34v27.2h38.34v36.007h34.19V804.94l-34.19.259ZM1604.5 1024.87c13.73 0 23.84-10.88 23.84-24.87 0-14.247-10.11-24.868-23.84-24.868-13.47 0-23.57 10.621-23.57 24.868 0 13.99 10.1 24.87 23.57 24.87Z" style="fill-rule:nonzero" transform="translate(1623.256 1116.069) scale(.57905)"/></svg>