<svg xmlns="http://www.w3.org/2000/svg" xml:space="preserve" style="fill-rule:evenodd;clip-rule:evenodd;stroke-linejoin:round;stroke-miterlimit:2" viewBox="0 0 3000 2000"><circle cx="773.954" cy="994.898" r="622.232" style="fill:#243bbd" transform="translate(1233.023 -359.218) scale(1.14115)"/><path d="M251.5 1021.24h134.799v-41.861h-84.842v-44.095h69.492v-41.863h-69.492v-38.514h81.772v-41.584H251.5v207.917ZM392.997 1021.24h51.631l10.884-25.115c3.907-9.21 7.814-18.42 11.722-27.072h1.395c5.024 8.652 9.768 18.141 14.513 27.072l14.512 25.115h53.306l-48.561-77.025 45.77-81.773h-51.352l-9.768 24.281c-3.349 9.21-7.256 18.419-10.326 27.35h-1.396c-4.465-8.931-8.931-18.14-13.117-27.35l-13.117-24.281h-53.305l45.77 76.191-48.561 82.607ZM638.593 1025.15c18.419 0 40.188-6.42 56.654-18.14l-16.466-29.863c-11.443 6.698-22.048 10.047-33.49 10.047-20.095 0-35.165-8.931-39.631-30.7h93.215c1.117-3.907 2.233-12.559 2.233-21.489 0-43.259-22.327-76.47-68.097-76.47-38.235 0-75.353 31.816-75.353 83.168 0 52.747 35.164 83.447 80.935 83.447Zm-33.77-101.309c3.349-18.699 15.35-27.35 29.025-27.35 18.141 0 25.118 11.721 25.118 27.35h-54.143ZM802.974 1025.15c16.746 0 36.84-5.02 52.469-18.7l-19.257-32.652c-8.094 6.419-17.583 11.163-27.63 11.163-19.257 0-33.769-16.745-33.769-43.258 0-26.234 13.675-42.98 35.723-42.98 6.698 0 12.838 2.512 20.094 8.373l23.164-31.537c-12.001-10.326-27.071-17.024-46.328-17.024-44.375 0-83.447 30.7-83.447 83.168 0 52.747 34.328 83.447 78.981 83.447ZM930.796 1025.15c21.489 0 36.281-10.05 49.398-25.676h1.116l3.629 21.766h40.471V862.442h-49.681v104.099c-8.373 11.722-15.35 16.187-26.513 16.187-12.559 0-18.42-6.419-18.42-28.187v-92.099h-49.677v98.239c0 39.629 14.791 64.469 49.677 64.469ZM1127.83 1025.15c16.19 0 27.63-3.35 36-5.86l-7.81-36.003c-3.91 1.395-9.49 3.07-14.51 3.07-11.73 0-20.1-6.978-20.1-24.56v-60.562h37.4v-38.793h-37.4V820.3h-41.02l-5.59 42.142-24.55 1.954v36.839h21.48v61.12c0 37.398 16.19 62.795 56.1 62.795ZM1189.51 1021.24h49.68V862.442h-49.68v158.798Zm24.84-180.846c16.46 0 27.63-10.047 27.63-25.675 0-15.35-11.17-25.397-27.63-25.397-16.75 0-27.63 10.047-27.63 25.397 0 15.628 10.88 25.675 27.63 25.675ZM1348.03 1025.15c40.19 0 77.59-30.7 77.59-83.447 0-52.468-37.4-83.168-77.59-83.168-40.47 0-77.87 30.7-77.87 83.168 0 52.747 37.4 83.447 77.87 83.447Zm0-40.189c-18.7 0-27.07-16.745-27.07-43.258 0-26.234 8.37-42.98 27.07-42.98 18.42 0 26.79 16.746 26.79 42.98 0 26.513-8.37 43.258-26.79 43.258ZM1456.87 1021.24h49.68V915.19c9.49-9.21 16.19-14.234 27.35-14.234 12.56 0 18.42 6.14 18.42 28.188v92.096H1602v-98.236c0-39.63-14.79-64.469-49.4-64.469-21.49 0-37.68 10.884-50.79 23.722h-.84l-3.63-19.815h-40.47v158.798Z" style="fill:#fff;fill-rule:nonzero" transform="translate(1579.586 234.21) scale(.57905)"/><circle cx="773.954" cy="994.898" r="622.232" style="fill:#4460ff" transform="translate(.581 -359.218) scale(1.14115)"/><path d="M302.015 917.422c5.302-20.652 10.884-44.933 15.908-66.701h1.116c5.582 21.21 10.884 46.049 16.466 66.701l4.465 17.583h-42.421l4.466-17.583Zm-76.749 103.818h50.794l12-47.721h61.399l12.001 47.721h52.468l-64.469-207.917h-59.724l-64.469 207.917ZM488.723 1025.15c15.071 0 30.421-8.09 41.584-19.26h1.117l3.628 15.35h40.467V798.252h-49.677v53.027l1.674 23.722c-10.326-10.047-20.652-16.466-38.234-16.466-32.933 0-65.586 31.258-65.586 83.168 0 51.91 25.397 83.447 65.027 83.447Zm13.117-40.747c-17.024 0-27.071-12.838-27.071-43.258 0-29.304 12.559-42.142 26.234-42.142 8.373 0 17.303 2.511 24.839 9.488v62.516c-6.977 10.326-14.513 13.396-24.002 13.396ZM655.617 1025.15c17.582 0 32.374-8.09 45.491-19.82h1.395l3.349 15.91h40.468v-90.143c0-49.677-23.164-72.562-64.19-72.562-24.839 0-47.445 8.373-68.376 20.932l17.303 32.653c15.908-8.931 29.025-13.955 41.584-13.955 16.187 0 22.885 7.536 24.002 20.374-61.958 6.698-88.192 24.838-88.192 58.329 0 26.512 17.862 48.282 47.166 48.282Zm17.024-38.514c-10.326 0-17.024-4.466-17.024-13.676 0-11.163 10.047-20.373 41.026-24.28v25.397c-7.257 7.814-13.955 12.559-24.002 12.559ZM784.555 1079.01h49.677v-45.49l-1.674-24.84c10.605 10.61 23.443 16.47 36.839 16.47 34.048 0 66.701-31.258 66.701-85.959 0-48.84-24.001-80.656-61.957-80.656-16.466 0-32.095 8.094-44.653 19.257h-.838l-3.628-15.35h-40.467v216.568Zm73.12-94.607c-7.535 0-15.629-2.233-23.443-9.21v-62.794c8.373-9.21 15.908-13.396 25.118-13.396 17.582 0 25.676 13.117 25.676 41.025 0 31.816-12.28 44.375-27.351 44.375ZM1021.78 1025.15c16.18 0 27.63-3.35 36-5.86l-7.81-36.003c-3.91 1.395-9.49 3.07-14.52 3.07-11.72 0-20.09-6.978-20.09-24.56v-60.562h37.4v-38.793h-37.4V820.3h-41.027l-5.581 42.142-24.56 1.954v36.839h21.49v61.12c0 37.398 16.187 62.795 56.098 62.795ZM1117.23 1025.15c17.58 0 32.37-8.09 45.49-19.82h1.39l3.35 15.91h40.47v-90.143c0-49.677-23.17-72.562-64.19-72.562-24.84 0-47.45 8.373-68.38 20.932l17.31 32.653c15.9-8.931 29.02-13.955 41.58-13.955 16.19 0 22.88 7.536 24 20.374-61.96 6.698-88.19 24.838-88.19 58.329 0 26.512 17.86 48.282 47.17 48.282Zm17.02-38.514c-10.33 0-17.02-4.466-17.02-13.676 0-11.163 10.04-20.373 41.02-24.28v25.397c-7.25 7.814-13.95 12.559-24 12.559ZM1331.01 1025.15c34.04 0 66.7-31.258 66.7-86.238 0-48.561-24.28-80.377-62.24-80.377-14.51 0-29.3 6.419-41.03 17.024l1.4-23.722v-53.585h-49.68v222.988h38.8l3.9-17.02h1.4c12.28 13.67 26.79 20.93 40.75 20.93Zm-11.73-40.747c-7.53 0-15.9-2.233-23.44-9.21v-62.794c8.37-9.21 15.91-13.396 25.12-13.396 17.58 0 25.67 13.117 25.67 41.025 0 31.816-12.28 44.375-27.35 44.375ZM1429.8 1021.24h49.68V862.442h-49.68v158.798Zm24.84-180.846c16.47 0 27.63-10.047 27.63-25.675 0-15.35-11.16-25.397-27.63-25.397-16.75 0-27.63 10.047-27.63 25.397 0 15.628 10.88 25.675 27.63 25.675ZM1564.6 1025.15c11.16 0 19.26-1.95 24.56-4.19l-5.86-36.557c-2.79.558-3.91.558-5.58.558-3.91 0-8.65-3.07-8.65-13.675V798.252h-49.68v171.359c0 33.209 11.16 55.539 45.21 55.539ZM1612.05 1021.24h49.67V862.442h-49.67v158.798Zm24.83-180.846c16.47 0 27.63-10.047 27.63-25.675 0-15.35-11.16-25.397-27.63-25.397-16.74 0-27.63 10.047-27.63 25.397 0 15.628 10.89 25.675 27.63 25.675ZM1764.15 1025.15c16.18 0 27.63-3.35 36-5.86l-7.81-36.003c-3.91 1.395-9.49 3.07-14.52 3.07-11.72 0-20.09-6.978-20.09-24.56v-60.562h37.4v-38.793h-37.4V820.3h-41.03l-5.58 42.142-24.56 1.954v36.839h21.49v61.12c0 37.398 16.19 62.795 56.1 62.795ZM1845.64 1082.36c37.68 0 54.98-20.09 70.33-60.84l54.7-159.078h-47.44l-18.42 65.865c-3.63 15.07-7.26 29.862-10.33 44.932h-1.39c-4.19-15.628-7.54-30.42-12.28-44.932l-21.21-65.865h-49.96l60.84 154.058-2.23 8.09c-3.63 11.17-11.45 18.98-26.52 18.98-3.62 0-7.81-1.4-10.6-1.95l-8.93 37.67c6.69 1.96 13.11 3.07 23.44 3.07Z" style="fill:#fff;fill-rule:nonzero" transform="translate(248 234.21) scale(.57905)"/><path d="M339.633 885.065c13.401 0 22.663 6.306 22.663 17.737 0 11.036-9.262 17.342-22.663 17.342-13.204 0-22.663-6.306-22.663-17.342 0-11.431 9.459-17.737 22.663-17.737Zm0 56.363c27.393 0 47.495-16.16 47.495-38.626 0-22.861-20.102-38.824-47.495-38.824-27.393 0-47.692 15.963-47.692 38.824 0 22.466 20.299 38.626 47.692 38.626Zm56.757 4.532c-38.429 5.716-83.362 6.11-115.09 6.11l2.956 21.284c12.809 0 27.59-.197 43.159-.789v60.105h26.013v-61.681c14.781-1.38 29.955-3.153 44.539-6.11l-1.577-18.919Zm10.248-89.274v181.304h26.013V856.686h-26.013ZM472.066 875.408v20.693h60.501c-3.744 40.203-23.845 68.581-70.158 90.851l13.598 20.498c64.443-31.14 83.165-76.467 83.165-132.042h-87.106Zm114.893-18.919v181.501h26.211V856.489h-26.211ZM761.96 886.247h-98.142v43.356h126.915v-17.539H689.437v-9.46h98.143V859.84H663.424v17.539h98.536v8.868Zm-74.099 122.973h100.31v-43.158H661.847v17.539h100.507v9.263h-100.31v43.746h131.054v-17.54H687.861v-9.85Zm-44.539-70.945v18.722h164.359v-18.722H643.322ZM889.86 875.408v20.693h60.502c-3.745 40.203-23.846 68.581-70.158 90.851l13.598 20.498c64.443-31.14 83.165-76.467 83.165-132.042H889.86Zm114.89-18.919v181.501h26.21V856.489h-26.21ZM1174.63 876.788h-41.38v-19.51h-26.02v19.51h-41.58v20.298h108.98v-20.298Zm-74.69 61.487c0-9.263 8.28-14.387 20.3-14.387 12.22 0 20.3 5.124 20.3 14.387 0 9.459-8.08 14.583-20.3 14.583-12.02 0-20.3-5.124-20.3-14.583Zm33.31 32.911c19.31-3.745 31.92-15.963 31.92-32.911 0-20.299-18.52-34.094-44.93-34.094-26.61 0-45.13 13.795-45.13 34.094 0 16.948 12.61 29.166 32.12 32.911v15.371c-16.16.395-31.53.395-45.13.395l3.16 21.088c32.12 0 74.1-.2 113.71-7.49l-1.97-18.919c-14.19 1.97-28.97 2.956-43.75 3.941v-14.386Zm53.2-114.5v181.504h26.02V856.686h-26.02ZM1337.41 997.002v-26.999h54.99v-20.889h-105.24v-20.299h101.1v-60.501h-127.11v20.692h101.49v19.511h-101.3v61.486h50.06v26.999h-68.98v21.288h164.36v-21.288h-69.37ZM1447.18 1024c10.45 0 18.13-8.28 18.13-18.92 0-10.837-7.68-18.917-18.13-18.917-10.25 0-17.93 8.08-17.93 18.917 0 10.64 7.68 18.92 17.93 18.92Z" style="fill-rule:nonzero" transform="translate(378.09 1137.76) scale(.57905)"/><path d="M298.08 968.338c-17.165-5.636-27.028-19.727-27.028-34.586v-12.426H257.73v11.401c0 16.653-9.864 32.409-28.054 38.685l7.046 10.504c13.322-4.867 22.801-14.859 27.925-27.412 4.868 10.888 14.091 19.727 26.516 24.21l6.917-10.376Zm-14.219 52.392c-16.14 0-25.491-3.97-25.491-11.4 0-7.17 9.351-11.273 25.491-11.273 16.141 0 25.492 4.103 25.492 11.273 0 7.43-9.351 11.4-25.492 11.4Zm0-33.049c-23.826 0-38.557 8.07-38.557 21.649 0 13.71 14.731 21.78 38.557 21.78 23.955 0 38.558-8.07 38.558-21.78 0-13.579-14.603-21.649-38.558-21.649ZM321.138 944v-28.694h-13.194v69.557h13.194v-29.975h16.396V944h-16.396ZM410.294 924.657h-26.26v-10.12h-13.323v10.12h-26.516v9.735h66.099v-9.735Zm-48.165 30.103c0-4.868 5.892-7.686 15.115-7.686 9.352 0 15.116 2.818 15.116 7.686 0 4.996-5.764 7.814-15.116 7.814-9.223 0-15.115-2.818-15.115-7.814Zm51.367 21.136c-9.351 1.281-19.471 2.049-29.462 2.562V970.9c12.809-1.537 20.751-7.43 20.751-16.14 0-10.248-10.888-16.397-27.541-16.397-16.652 0-27.54 6.149-27.54 16.397 0 8.838 7.942 14.603 21.007 16.14v8.07c-10.632.384-20.751.384-29.462.384l1.537 10.248c20.24 0 47.396-.384 71.735-4.739l-1.025-8.967ZM395.05 1021.5c-16.781 0-25.363-2.82-25.363-8.33 0-5.63 8.582-8.45 25.363-8.45 16.653 0 25.235 2.82 25.235 8.45 0 5.51-8.582 8.33-25.235 8.33Zm0-26.39c-24.467 0-38.685 6.28-38.685 18.06 0 11.66 14.218 18.06 38.685 18.06 24.338 0 38.557-6.4 38.557-18.06 0-11.78-14.219-18.06-38.557-18.06Zm37.789-45.73v-33.818h-13.194v78.011h13.194v-33.305h15.884V949.38h-15.884ZM565.804 946.433v14.219h-24.083v-14.219h24.083Zm-37.02 24.979h-27.285v-18.83h27.285v18.83Zm12.937 0h24.083V1001h13.194v-85.438h-13.194v20.239h-24.083V923.12h-12.937v19.086h-27.285V923.12h-13.066v59.053h53.288v-10.761Zm-24.722 46.758v-25.493h-13.322v36.253h78.011v-10.76h-64.689ZM664.054 928.756h-27.669v-12.938h-13.194v12.938h-27.925v10.632h68.788v-10.632Zm-49.573 38.045c0-7.174 6.276-11.529 15.371-11.529s15.244 4.355 15.244 11.529c0 7.045-6.149 11.401-15.244 11.401-9.095 0-15.371-4.356-15.371-11.401Zm21.904 21.008c12.81-2.05 21.136-9.992 21.136-21.008 0-13.066-11.272-21.649-27.669-21.649-16.524 0-27.797 8.583-27.797 21.649 0 11.016 8.327 18.83 21.136 21.008v11.272c-10.76.385-21.136.385-29.974.385l1.793 10.884c19.855 0 46.627-.25 71.35-4.61l-1.025-9.733c-9.223 1.409-19.086 2.05-28.95 2.562v-10.76Zm65.074-24.082h-16.397v-48.421h-13.194v115.804h13.194v-56.495h16.397v-10.888ZM732.074 994.086c-7.942 0-12.81-10.376-12.81-28.694 0-18.318 4.868-28.566 12.81-28.566s12.81 10.248 12.81 28.566c0 18.318-4.868 28.694-12.81 28.694Zm37.02-34.843h-12.425c-1.409-21.648-10.76-34.842-24.595-34.842-14.987 0-24.851 15.628-24.851 40.991s9.864 41.118 24.851 41.118c14.091 0 23.57-13.833 24.723-36.379h12.297v55.469h12.297V917.612h-12.297v41.631Zm23.186-43.809v115.546h12.553V915.434H792.28ZM915.766 970.26c-17.294-6.021-27.157-20.496-27.157-34.843v-2.178h24.082v-10.632H850.82v10.632h24.467v2.306c0 15.628-10.504 30.872-28.438 37.02l6.789 10.376c13.707-4.739 23.442-14.731 28.566-27.156 4.996 11.144 14.219 20.239 27.029 24.722l6.533-10.247Zm-50.983 30.62H929.6v30.23h13.194v-40.867h-78.011v10.637Zm64.817-85.574v29.078h-20.239v10.888H929.6v29.206h13.194v-69.172H929.6ZM958.294 970.644v10.632h104.656v-10.632H958.294Zm52.136 18.702c-24.851 0-39.839 7.686-39.839 21.004 0 13.33 14.988 20.88 39.839 20.88 24.98 0 39.84-7.55 39.84-20.88 0-13.318-14.86-21.004-39.84-21.004Zm0 10.248c16.91 0 26.52 3.716 26.52 10.756 0 7.05-9.61 10.76-26.52 10.76-16.909 0-26.389-3.71-26.389-10.76 0-7.04 9.48-10.756 26.389-10.756Zm.26-81.47c-25.239 0-41.252 8.454-41.252 22.417 0 13.834 16.013 22.289 41.252 22.289 25.1 0 41.24-8.455 41.24-22.289 0-13.963-16.14-22.417-41.24-22.417Zm0 10.376c17.16 0 27.54 4.355 27.54 12.041 0 7.558-10.38 11.913-27.54 11.913-17.169 0-27.673-4.355-27.673-11.913 0-7.686 10.504-12.041 27.673-12.041ZM1103.56 995.367c-9.36 0-16.14-6.405-16.14-16.141 0-9.735 6.78-16.14 16.14-16.14 9.35 0 16.14 6.405 16.14 16.14 0 9.736-6.79 16.141-16.14 16.141Zm0-43.169c-16.66 0-28.7 11.272-28.7 27.028 0 15.884 12.04 27.024 28.7 27.024 16.52 0 28.69-11.14 28.69-27.024 0-15.756-12.17-27.028-28.69-27.028Zm6.4-34.971h-13.19v16.012h-27.54V944h67.76v-10.761h-27.03v-16.012Zm67.51 44.706h-17.81v-46.499h-13.32v115.796h13.32v-58.28h17.81v-11.017ZM1274.18 948.611h-66.22v-29.078h-13.2v39.838h79.42v-10.76Zm-66.99 45.859h-13.2v34.07h80.83v-10.63h-67.63v-23.44Zm-26.01-21.264v10.632h105.04v-10.632h-105.04ZM1392.67 964.495c-15.37 2.562-28.56 3.075-50.85 3.075v-12.554h38.94V944.64h-38.94v-11.913h42.27v-10.632h-55.34v55.978h9.61c24.85 0 39.07-.384 55.59-3.074l-1.28-10.504Zm-37.91 35.735h49.83v18.96h-49.83v-18.96Zm-12.94 29.47h75.7v-39.97h-75.7v39.97Zm62.51-114.266v68.916h13.19v-68.916h-13.19Z" style="fill:#404040;fill-rule:nonzero" transform="translate(406.874 1262.567) scale(.57905)"/><path d="M80.719 925.169h-26.26v-10.76H41.137v10.76H14.621v9.608h66.098v-9.608Zm-48.165 30.487c0-5.252 5.893-8.454 15.116-8.454 9.223 0 15.115 3.202 15.115 8.454 0 5.124-5.892 8.199-15.115 8.199-9.223 0-15.116-3.075-15.116-8.199Zm51.367 21.265c-9.351 1.409-19.471 2.049-29.462 2.562v-7.174c12.81-1.537 20.752-7.558 20.752-16.653 0-10.76-10.889-17.293-27.541-17.293-16.653 0-27.541 6.533-27.541 17.293 0 9.095 7.942 15.244 21.008 16.653v7.686c-10.632.256-20.752.256-29.463.256l1.538 10.504c20.239-.128 47.267-.256 71.734-4.611l-1.025-9.223Zm-57.9 32.409H90.07v21.9h13.194v-32.405H26.021v10.505Zm93.127-59.694h-15.884v-34.074H90.07v78.139h13.194v-33.177h15.884v-10.888ZM219.448 915.434h-13.194v84.032h13.194v-84.032Zm-80.189 36.636c0-10.632 7.558-17.55 17.806-17.55 10.12 0 17.805 6.918 17.805 17.55 0 10.504-7.685 17.549-17.805 17.549-10.248 0-17.806-7.045-17.806-17.549Zm48.421 0c0-16.909-13.194-28.95-30.615-28.95s-30.743 12.041-30.743 28.95c0 16.78 13.322 28.95 30.743 28.95s30.615-12.17 30.615-28.95Zm-30.487 66.1v-27.159h-13.322v37.919h78.908v-10.76h-65.586ZM280.294 974.615h23.57v-10.632h-46.499v-27.285h45.987v-10.76h-59.181v48.677H267.1v21.392a1332.97 1332.97 0 0 1-30.999.384l1.665 10.889c21.777.13 48.677-.26 73.656-4.23l-1.025-9.733c-9.607 1.153-19.855 1.793-30.103 2.178v-20.88Zm37.149-59.437v116.182h13.322V915.178h-13.322ZM389.69 937.851h25.747v-10.888H350.62v10.888h25.747v11.016c0 19.855-11.913 41.376-29.846 49.702l7.558 10.501c13.578-6.53 23.954-20.236 29.078-36.377 5.38 14.988 15.756 27.537 29.206 33.437l7.301-10.379c-18.061-7.686-29.974-27.669-29.974-46.884v-11.016Zm39.197-22.417v115.676h13.322V915.434h-13.322ZM502.159 948.483c0-9.607 7.558-16.14 17.549-16.14 9.992 0 17.55 6.533 17.55 16.14 0 9.479-7.558 16.012-17.55 16.012-9.991 0-17.549-6.533-17.549-16.012Zm47.908 0c0-15.756-12.937-26.9-30.359-26.9-17.421 0-30.359 11.144-30.359 26.9 0 15.628 12.938 26.9 30.359 26.9 17.422 0 30.359-11.272 30.359-26.9Zm-38.173 36.123h-12.809v43.554h6.02c9.351 0 19.343-.51 29.847-4.1l-2.178-10.5c-6.917 2.3-14.219 3.33-20.88 3.71v-32.664Zm47.909 37.404c-5.893 0-10.248-2.69-10.248-7.17 0-4.61 4.355-7.18 10.248-7.18 5.764 0 10.12 2.57 10.12 7.18 0 4.48-4.356 7.17-10.12 7.17Zm0-23.569c-12.81 0-21.905 6.409-21.905 16.399 0 9.99 9.095 16.39 21.905 16.39 12.681 0 21.776-6.4 21.776-16.39s-9.095-16.399-21.776-16.399Zm6.405-22.673h-12.81v9.479h-22.673v9.607h58.028v-9.607h-22.545v-9.479Zm12.041-35.227v-25.107h-13.194v57.259h13.194v-21.264h16.396v-10.888h-16.396ZM651.649 929.653c16.908 0 27.541 4.739 27.541 12.809 0 8.199-10.633 12.938-27.541 12.938-17.037 0-27.669-4.739-27.669-12.938 0-8.07 10.632-12.809 27.669-12.809Zm0 36.379c24.979 0 41.247-8.838 41.247-23.57 0-14.603-16.268-23.441-41.247-23.441s-41.248 8.838-41.248 23.441c0 14.732 16.269 23.57 41.248 23.57Zm-25.876 29.207h-13.322v33.691h79.804v-10.76h-66.482v-22.931Zm-26.516-19.856v10.761h104.655v-10.761H599.257ZM802.419 944.512v10.76h20.496v29.078h13.194v-68.916h-13.194v29.078h-20.496Zm6.661 25.748c-17.293-6.021-27.156-20.368-27.156-34.843v-1.537h24.082v-10.632h-61.871v10.632h24.466v1.665c0 15.884-10.375 31.256-28.309 37.661l6.789 10.504c13.707-4.868 23.442-15.116 28.566-27.797 4.868 11.144 14.091 20.239 26.9 24.722l6.533-10.375Zm-11.4 50.73c-16.525 0-25.876-4.1-25.876-11.66 0-7.56 9.351-11.658 25.876-11.658 16.268 0 25.747 4.098 25.747 11.658s-9.479 11.66-25.747 11.66Zm0-33.565c-24.211 0-39.07 8.198-39.07 21.905 0 13.83 14.859 21.9 39.07 21.9 24.082 0 38.941-8.07 38.941-21.9 0-13.707-14.859-21.905-38.941-21.905ZM876.588 953.223h54.825v18.958h-54.825v-18.958Zm33.945 52.907v-23.317h33.946V923.12h-13.066v19.471h-54.825V923.12h-13.066v59.693h33.817v23.317h-45.602v10.88H956.52v-10.88h-45.987ZM1021.98 1006.64v-19.728h36.12V976.28h-69.299v-16.14h66.739v-36.636h-79.933v10.632h66.863v15.5h-66.607v37.276h32.917v19.728h-45.599v10.89h104.779v-10.89h-45.98ZM1130.22 936.314h15.37v36.123c-5.12.256-10.37.513-15.37.641v-36.764Zm43.42 33.946c-4.86.64-9.99 1.024-15.24 1.409v-35.355h10.51v-10.76h-61.87v10.76h10.5v36.892c-4.74.128-9.35.128-13.58.128l1.41 10.888c19.73 0 46.24-.64 69.17-4.355l-.9-9.607Zm-39.19 22.417h-13.33v36.253h77.89v-10.76h-64.56v-25.493Zm59.95-43.041v-34.202h-13.2v85.186h13.2v-40.096h16.39v-10.888h-16.39ZM1281.76 964.751c-13.96 2.947-26.39 3.587-48.29 3.715v-32.793h38.3v-10.76h-51.5v54.441h9.35c24.86 0 38.43-.768 53.42-3.971l-1.28-10.632Zm-35.87 25.876h-13.32v38.303h77.88v-10.76h-64.56v-27.543Zm59.95-42.144v-33.177h-13.19v83.775h13.19v-39.71h16.4v-10.888h-16.4ZM1360.67 995.367c-9.35 0-16.14-6.405-16.14-16.141 0-9.735 6.79-16.14 16.14-16.14 9.35 0 16.14 6.405 16.14 16.14 0 9.736-6.79 16.141-16.14 16.141Zm0-43.169c-16.65 0-28.7 11.272-28.7 27.028 0 15.884 12.05 27.024 28.7 27.024 16.52 0 28.69-11.14 28.69-27.024 0-15.756-12.17-27.028-28.69-27.028Zm6.4-34.971h-13.19v16.012h-27.54V944h67.76v-10.761h-27.03v-16.012Zm67.51 44.706h-17.81v-46.499h-13.32v115.796h13.32v-58.28h17.81v-11.017ZM1444.95 927.603v10.76h41.25c-2.3 26.645-16.65 47.012-47.01 61.615l7.05 10.502c39.71-19.212 53.54-48.419 53.54-82.877h-54.83Zm75.71-12.169v115.676h13.2V915.434h-13.2ZM1604.18 953.223h54.83v18.958h-54.83v-18.958Zm33.95 52.907v-23.317h33.94V923.12h-13.06v19.471h-54.83V923.12h-13.07v59.693h33.82v23.317h-45.6v10.88h104.78v-10.88h-45.98ZM1708.58 937.082h40.61v-10.76h-53.8v76.478h9.48c20.88 0 36.5-.64 54.05-3.847l-1.41-10.888c-16.14 2.818-30.23 3.587-48.93 3.715v-54.698Zm89.8 22.802h-18.07v-44.578h-13.19v115.924h13.19v-60.458h18.07v-10.888ZM1805.81 1046.86c13.19-4.99 21-15.37 21-28.82 0-9.86-4.22-15.88-11.4-15.88-5.63 0-10.25 3.71-10.25 9.47 0 6.15 4.62 9.48 9.87 9.48.51 0 .89 0 1.41-.12 0 7.43-5.13 13.96-13.96 17.55l3.33 8.32ZM599.129 1043.4h-13.194v58.8h13.194v-58.8Zm-80.317 29.98c0-9.23 7.429-15.25 17.421-15.25 10.12 0 17.677 6.02 17.677 15.25 0 9.22-7.557 15.24-17.677 15.24-9.992 0-17.421-6.02-17.421-15.24Zm47.908 0c0-15.25-12.938-26.13-30.487-26.13-17.421 0-30.231 10.88-30.231 26.13 0 15.24 12.81 26 30.231 26 17.549 0 30.487-10.76 30.487-26Zm-30.231 74.04v-10.25h62.64v-29.72h-75.834v10.38h62.768v9.6h-62.512v30.36h79.036v-10.37h-66.098ZM681.495 1092.85c-13.962 2.95-26.388 3.58-48.292 3.71v-32.79h38.301v-10.76h-51.495v54.44h9.351c24.851 0 38.429-.77 53.416-3.97l-1.281-10.63Zm-35.867 25.87h-13.322v38.31h77.883v-10.76h-64.561v-27.55Zm59.95-42.14v-33.18h-13.194v83.78h13.194v-39.71h16.396v-10.89h-16.396ZM851.48 1043.53h-13.322v59.31h13.322v-59.31Zm-24.979 46.37c-17.805-5.51-28.181-19.6-28.181-34.58v-8.71h-13.45v8.71c0 15.62-10.376 30.61-28.694 36.63l6.533 10.51c13.963-4.74 23.826-14.35 29.078-26.78 5.252 11.4 14.987 20.24 28.31 24.6l6.404-10.38Zm-37.66 57.9v-10.12h62.639v-29.33h-75.833v10.25h62.768v9.48h-62.512v30.1h79.036v-10.38h-66.098ZM940.892 1084.52h12.042v31.9h12.553v-73.02h-12.553v30.23h-12.042v-27.92h-12.297v66.74h12.297v-27.93Zm-16.268-28.05h-22.289v-11.91h-12.938v11.91H866.98v10.38h57.644v-10.38Zm-41.632 35.35c0-6.27 5.124-10.37 12.938-10.37 7.814 0 13.066 4.1 13.066 10.37 0 6.28-5.252 10.38-13.066 10.38-7.814 0-12.938-4.1-12.938-10.38Zm37.789 0c0-11.91-10.248-19.98-24.851-19.98-14.475 0-24.723 8.07-24.723 19.98 0 12.05 10.248 19.99 24.723 19.99 14.603 0 24.851-7.94 24.851-19.99Zm6.277 57.39c-16.525 0-26.004-3.71-26.004-10.63 0-6.92 9.479-10.5 26.004-10.5 16.653 0 25.876 3.58 25.876 10.5s-9.223 10.63-25.876 10.63Zm0-31.13c-24.467 0-39.198 7.43-39.198 20.5 0 13.06 14.731 20.62 39.198 20.62 24.338 0 39.07-7.56 39.07-20.62 0-13.07-14.732-20.5-39.07-20.5ZM1012.75 1123.46c-9.35 0-16.135-6.4-16.135-16.14 0-9.73 6.785-16.14 16.135-16.14 9.36 0 16.14 6.41 16.14 16.14 0 9.74-6.78 16.14-16.14 16.14Zm0-43.16c-16.648 0-28.689 11.27-28.689 27.02 0 15.89 12.041 27.03 28.689 27.03 16.53 0 28.7-11.14 28.7-27.03 0-15.75-12.17-27.02-28.7-27.02Zm6.41-34.97h-13.19v16.01h-27.545v10.76h67.765v-10.76h-27.03v-16.01Zm67.51 44.7h-17.81v-46.5h-13.32v115.8h13.32v-58.28h17.81v-11.02ZM1183.38 1076.71h-66.23v-29.08h-13.19v39.84h79.42v-10.76Zm-66.99 45.86h-13.2v34.07h80.83v-10.63h-67.63v-23.44Zm-26.01-21.27v10.63h105.04v-10.63h-105.04ZM1301.87 1092.59c-15.37 2.56-28.56 3.08-50.85 3.08v-12.56h38.94v-10.37h-38.94v-11.92h42.27v-10.63h-55.34v55.98h9.61c24.85 0 39.07-.38 55.59-3.07l-1.28-10.51Zm-37.92 35.74h49.83v18.96h-49.83v-18.96Zm-12.93 29.46h75.7v-39.96h-75.7v39.96Zm62.51-114.26v68.92h13.19v-68.92h-13.19Z" style="fill:#404040;fill-rule:nonzero" transform="translate(1586.807 1262.636) scale(.57905)"/><path d="M314.9 987.937h69.764v27.783H314.9v-27.783Zm-25.619 48.083h120.806v-68.382H289.281v68.382Zm19.116-103.263c-13.204 0-22.86-8.475-22.86-22.664 0-13.795 9.656-21.875 22.86-21.875 13.401 0 23.058 8.08 23.058 21.875 0 14.189-9.657 22.664-23.058 22.664Zm75.676-76.071v42.765h-28.97c-4.927-19.707-23.451-33.305-46.706-33.305-26.999 0-47.692 18.525-47.692 43.947 0 26.014 20.693 44.342 47.692 44.342 23.452 0 41.977-13.598 46.903-33.897h28.773v39.021h26.014V856.686h-26.014ZM537.199 905.166v20.89h28.181v40.203h26.014V856.686H565.38v48.48h-28.181Zm11.43 35.474c-28.97-7.686-41.977-26.014-42.371-44.736h35.867v-20.496h-35.867v-19.313h-26.013v19.313h-35.474v20.496h35.474c-.395 20.298-13.007 40.794-41.78 49.071l12.219 20.102c21.086-6.11 35.276-18.919 43.356-35.474 8.277 14.387 22.466 25.62 42.764 30.941l11.825-19.904Zm-18.525 77.65c-24.043 0-36.261-4.54-36.261-14.39 0-9.854 12.218-14.584 36.261-14.584 23.649 0 36.064 4.73 36.064 14.584 0 9.85-12.415 14.39-36.064 14.39Zm0-48.878c-38.626 0-62.275 12.613-62.275 34.488 0 21.68 23.649 34.29 62.275 34.29 38.429 0 62.078-12.61 62.078-34.29 0-21.875-23.649-34.488-62.078-34.488ZM723.827 929.012c-24.437 4.927-47.889 6.701-69.567 7.095v-67.399h-26.014v89.077h15.569c25.619 0 53.407-1.774 83.165-7.883l-3.153-20.89Zm-50.845 46.115h-26.014v59.913h122.776v-20.69h-96.762v-39.223Zm90.85-67.596v-50.845h-26.013v130.463h26.013v-57.743h24.043v-21.875h-24.043ZM1008.01 856.884h-26.018v91.441h26.018v-91.441Zm-39.222 68.975c-29.364-8.671-42.371-29.758-42.371-51.239v-13.598H900.01v13.598c0 22.072-13.204 44.933-43.356 54.195l12.612 20.299c21.284-6.504 36.065-20.299 44.342-37.444 8.08 15.766 22.072 28.378 42.764 34.488l12.416-20.299Zm-55.575 90.851v-11.23h94.987v-49.075h-121v19.905h95.186v10.642h-94.989v49.858h125.343v-20.1h-99.527ZM1155.42 922.509h13.4V970.2h24.63V856.686h-24.63v44.736h-13.4v-41.385h-24.24v104.448h24.24v-41.976Zm-29.37-47.298h-31.33v-16.554h-25.62v16.554h-31.34v20.102h88.29v-20.102Zm-59.91 57.546c0-8.475 6.5-13.007 16.16-13.007s15.97 4.532 15.97 13.007c0 8.474-6.31 13.203-15.97 13.203s-16.16-4.729-16.16-13.203Zm55.18 0c0-18.722-16.16-31.532-39.02-31.532-23.06 0-39.22 12.81-39.22 31.532s16.16 31.728 39.22 31.728c22.86 0 39.02-13.006 39.02-31.728Zm10.64 86.123c-24.24 0-36.45-4.14-36.45-13.6s12.21-13.599 36.45-13.599c24.24 0 36.46 4.139 36.46 13.599s-12.22 13.6-36.46 13.6Zm0-46.709c-39.02 0-62.47 12.022-62.47 33.109 0 21.09 23.45 32.91 62.47 32.91 39.03 0 62.48-11.82 62.48-32.91 0-21.087-23.45-33.109-62.48-33.109ZM1312.68 938.866c-17.93 3.35-33.9 4.138-59.91 4.335v-18.919h53.41v-57.348h-79.42v20.89h53.8v17.145h-53.61v59.122h14c34.48 0 53.2-.591 74.29-4.532l-2.56-20.693Zm-65.03 58.53h98.14v40.994h26.01v-61.686h-124.15v20.692Zm98.14-140.512v24.831h-29.17v20.889h29.17v17.934h-29.17v20.693h29.17v27.393h26.01V856.686l-26.01.198ZM1424.81 1024c10.45 0 18.13-8.28 18.13-18.92 0-10.837-7.68-18.917-18.13-18.917-10.24 0-17.93 8.08-17.93 18.917 0 10.64 7.69 18.92 17.93 18.92Z" style="fill-rule:nonzero" transform="translate(1622.97 1137.76) scale(.57905)"/></svg>