<svg xmlns="http://www.w3.org/2000/svg" xml:space="preserve" style="fill-rule:evenodd;clip-rule:evenodd;stroke-linejoin:round;stroke-miterlimit:2" viewBox="0 0 3000 2000"><path d="M436.548 805.199h-34.194v120.197h34.194V805.199Zm-51.55 90.666c-38.598-11.398-55.695-39.116-55.695-67.352v-17.874h-34.712v17.874c0 29.013-17.356 59.062-56.99 71.237l16.579 26.682c27.977-8.549 47.406-26.682 58.285-49.219 10.621 20.724 29.013 37.303 56.213 45.333l16.32-26.681Zm-73.051 119.415v-14.76h124.86v-64.504H277.753v26.164h125.119v13.988h-124.86v65.542h164.753v-26.43H311.947ZM524.105 859.08h17.874v101.028c-5.958.259-12.175.518-17.874.777V859.08Zm48.442 0h15.024v-27.459H478.772v27.459h14.766v102.582h-18.91l3.626 27.718c29.013 0 76.937-.777 113.462-8.549l-2.332-24.868c-5.18.777-11.138 1.295-16.837 1.813V859.08Zm76.677-54.14v91.443h-18.392v-87.039h-31.604v223.036h31.604V924.1h18.392v119.68h32.381V804.94h-32.381ZM871.225 843.796H742.221v56.99h166.825v-23.055H775.897v-12.434h129.004v-56.213H741.703v23.055h129.522v11.657Zm-97.4 161.644h131.853v-56.73H739.631v23.055h132.113v12.175H739.89v57.51h172.265v-23.06h-138.33v-12.95Zm-58.545-93.256v24.61h216.044v-24.61H715.28ZM1217.31 889.388h-129v-44.555h126.41v-27.2h-161.39v98.955h163.98v-27.2Zm24.87 50.514h-216.3v27.718h90.4v75.64h34.2v-75.64h91.7v-27.718ZM1306.42 917.106h72.27v-92.22h-106.46v27.2h72.79v38.08h-72.27v100.768h19.16c35.75 0 66.06-.777 101.29-6.217l-2.59-27.977c-29.79 4.404-55.44 5.699-84.19 5.958v-45.592Zm123.31-112.425v50.773h-39.12v27.458h39.12v37.303h-39.64v27.459h39.64v96.366h34.45V804.681h-34.45ZM1579.19 840.688c16.84 0 28.24 8.548 28.24 23.055 0 14.766-11.4 23.055-28.24 23.055-16.83 0-28.75-8.289-28.75-23.055 0-14.507 11.92-23.055 28.75-23.055Zm0 72.014c34.98 0 60.36-19.946 60.36-48.959 0-28.754-25.38-48.96-60.36-48.96-35.22 0-60.61 20.206-60.61 48.96 0 29.013 25.39 48.959 60.61 48.959Zm76.17 6.218c-50.78 6.994-109.06 7.253-153.36 7.253l3.89 27.718c16.57 0 35.23 0 54.65-.778v83.417h34.2V951.3c20.72-1.554 41.7-3.626 62.69-7.512l-2.07-24.868Zm15.28-113.98v160.349h-47.92v25.904h47.92v52.067h34.19V804.94h-34.19ZM1810 966.843c-16.06 0-27.97-10.88-27.97-29.013 0-18.133 11.91-29.272 27.97-29.272 16.07 0 27.72 11.139 27.72 29.013 0 18.392-11.65 29.272-27.72 29.272Zm0-86.003c-34.71 0-60.61 23.573-60.61 56.731 0 33.676 25.9 57.249 60.61 57.249 34.46 0 60.1-23.573 60.1-57.249 0-33.158-25.64-56.731-60.1-56.731Zm16.84-71.756h-34.19v31.086h-52.85v27.2h138.85v-27.2h-51.81v-31.086Zm135.74 89.112h-34.19V804.94h-34.2v238.58h34.2V926.432h34.19v-28.236ZM2071.64 855.972h49.22v-28.236h-133.67v28.236h49.74v13.211c0 40.67-19.43 84.449-59.32 102.323l19.43 27.199c27.97-12.693 47.14-38.856 57.76-69.942 10.62 28.754 29.53 52.068 57.25 63.984l18.65-26.94c-39.89-16.579-59.06-57.767-59.06-96.624v-13.211Zm71.24-51.032v238.58h34.19V804.94h-34.19ZM2324.99 872.291c0-17.615 12.95-27.976 30.56-27.976 17.62 0 30.57 10.361 30.57 27.976 0 17.356-12.95 27.718-30.57 27.718-17.61 0-30.56-10.362-30.56-27.718Zm94.03 0c0-32.639-27.2-55.953-63.47-55.953-36.26 0-63.46 23.314-63.46 55.953 0 32.381 27.2 55.695 63.46 55.695 36.27 0 63.47-23.314 63.47-55.695Zm-74.61 73.051h-33.15v92.218h13.21c23.31 0 41.96-1.29 61.65-8.03l-4.66-26.94c-11.92 3.89-24.35 5.96-37.05 7v-64.248Zm93 75.378c-9.06 0-15.8-3.36-15.8-10.62 0-6.99 6.74-10.358 15.8-10.358 9.33 0 15.8 3.368 15.8 10.358 0 7.26-6.47 10.62-15.8 10.62Zm0-44.033c-27.2 0-46.11 12.952-46.11 33.413 0 20.73 18.91 33.68 46.11 33.68s46.11-12.95 46.11-33.68c0-20.461-18.91-33.413-46.11-33.413Zm16.84-47.406h-33.16v16.838h-43.52v24.61h119.42v-24.61h-42.74v-16.838Zm23.57-75.123V804.94h-34.19v117.347h34.19v-39.893h31.61v-28.236h-31.61ZM2720.81 869.442h-131.34v-55.954h-34.19v83.154h165.53v-27.2Zm-133.41 97.919h-34.45v70.979h169.15v-27.2h-134.7v-43.779Zm-58.8-46.369v27.459h216.04v-27.459H2528.6ZM2964.31 988.603v-49.737h68.13v-27.459h-133.41v-62.689h131.59V821.26h-166.04v117.606h65.54v49.737h-90.67v27.977h216.04v-27.977h-91.18ZM3205.74 866.592v27.718h37.3v84.708h34.2V804.94h-34.2v61.652h-37.3Zm15.8 54.918c-37.56-12.693-53.88-41.965-53.88-70.201V848.2h46.37v-27.199H3085.8V848.2h46.89v3.368c0 30.049-17.1 61.393-56.22 74.087l17.36 27.199c27.72-9.325 46.37-28.235 56.99-51.809 10.36 21.501 27.98 38.598 54.14 47.147l16.58-26.682Zm-67.35 90.67v-47.669h-34.2v74.869h162.69v-27.2h-128.49Z" style="fill-rule:nonzero" transform="translate(259.313 -378.321) scale(.70488)"/><path d="M1749.51 977.93h33.43v-82.065h77.13V864.33h-77.13v-82.065h-33.43v82.065h-77.13v31.535h77.13v82.065Z" style="fill-rule:nonzero" transform="translate(255.022 -11.617) scale(.70488)"/><path d="M1672.38 848.753h187.69v-31.535h-187.69v31.535Zm0 94.223h187.69v-31.534h-187.69v31.534Z" style="fill-rule:nonzero" transform="rotate(-90 1721.377 841.74) scale(.70488)"/><path d="M370.232 825.404h-46.628v-22.278H289.41v22.278h-49.995v26.682h130.817v-26.682Zm-87.816 80.563c0-12.434 10.103-19.687 24.091-19.687 13.73 0 24.092 7.253 24.092 19.687 0 12.434-10.362 19.947-24.092 19.947-13.988 0-24.091-7.513-24.091-19.947Zm79.786 0c0-26.422-23.832-45.592-55.695-45.592-31.862 0-55.953 19.17-55.953 45.592 0 26.423 24.091 45.592 55.953 45.592 31.863 0 55.695-19.169 55.695-45.592Zm-86.521 88.594h128.227v49.219h34.194v-76.419H275.681v27.2ZM403.908 804.94v53.363h-30.567v27.2h30.567v18.651h-31.344v27.2h31.344v25.386h34.194v-151.8h-34.194ZM675.128 805.199h-34.453v173.819h34.453V805.199ZM623.06 915.811c-38.856-12.434-55.435-43.001-55.435-74.605v-23.055h-34.712v23.055c0 31.863-17.097 65.279-56.731 78.75l17.356 27.199c27.718-9.584 46.369-29.013 57.249-53.104 10.362 22.278 28.495 39.893 54.917 48.96l17.356-27.2Zm-72.532 96.369v-49.741h-34.194v76.941h164.752v-27.2H550.528ZM823.043 833.435c34.712 0 51.032 4.922 51.032 15.542 0 11.139-16.32 15.802-51.032 15.802-34.453 0-50.773-4.663-50.773-15.802 0-10.62 16.32-15.542 50.773-15.542Zm0 56.212c54.659 0 86.521-14.247 86.521-40.67 0-26.163-31.862-40.67-86.521-40.67-54.399 0-86.262 14.507-86.262 40.67 0 26.423 31.863 40.67 86.262 40.67Zm-48.959 112.943h130.558v-61.393H739.89v25.128h131.076v12.693H740.149v62.692h170.71v-25.65H774.084v-13.47ZM715.28 901.045v26.682h215.526v-26.682H715.28ZM1046.08 895.605c45.59-3.367 75.38-19.428 87.82-41.188 12.43 22.019 42.22 37.562 88.07 41.188l10.62-25.645c-43.26-3.109-66.57-16.32-73.31-31.085h63.21v-26.423h-176.93v26.423h62.95c-6.99 14.506-30.31 27.976-73.31 31.085l10.88 25.645Zm168.9 91.184v-26.422h-63.73v-18.392h-34.45v18.392h-63.72v26.422h60.87c-7.25 14.511-30.05 27.721-71.5 31.091l10.88 24.86c39.12-3.36 66.58-16.32 80.83-34.45 14.24 18.13 41.7 31.09 80.56 34.45l10.88-24.86c-40.93-3.37-63.98-16.84-71.24-31.091h60.62Zm-63.99-80.304v-23.832h-34.45v23.832h-89.89v27.2h215.53v-27.2h-91.19ZM1456.67 869.442h-131.34v-55.954h-34.19v83.154h165.53v-27.2Zm-133.41 97.919h-34.45v70.979h169.15v-27.2h-134.7v-43.779Zm-58.8-46.369v27.459h216.04v-27.459h-216.04ZM1719.34 903.377c-29.79 4.404-55.96 5.44-97.14 5.699v-18.91h73.83v-26.423h-73.83V845.61h80.82v-26.941h-114.76v117.347h20.47c50.25 0 80.04-.777 113.72-6.217l-3.11-26.422Zm-70.98 79.786h91.7v30.827h-91.7v-30.827Zm-33.68 57.507h158.8v-84.189h-158.8v84.189Zm124.35-235.471v141.438h34.45V805.199h-34.45Z" style="fill-rule:nonzero" transform="translate(790.575 324.84) scale(.70488)"/><path d="M18.555 95.215c0-.455-.161-.844-.484-1.166a1.587 1.587 0 0 0-1.165-.483c-.453 0-.84.161-1.162.483a1.59 1.59 0 0 0-.483 1.166c0 .452.161.839.483 1.161.322.322.709.483 1.162.483.384 0 .729-.125 1.035-.376v.376a.99.99 0 0 1-.302.729 1.005 1.005 0 0 1-.733.302v.614c.455 0 .843-.162 1.165-.484a1.57 1.57 0 0 0 .484-1.161v-1.644Zm17.783-1.612c-.452 0-.839.161-1.161.483a1.59 1.59 0 0 0-.483 1.166v3.098h.613v-1.83c.306.251.65.376 1.031.376a1.59 1.59 0 0 0 1.166-.483c.322-.322.483-.709.483-1.161a1.59 1.59 0 0 0-.483-1.166 1.59 1.59 0 0 0-1.166-.483Zm-16.227 2.638h-.028a.347.347 0 0 1-.255-.106.348.348 0 0 1-.107-.256v-3.767h-.613v3.767c0 .269.096.5.288.692a.936.936 0 0 0 .687.284h.028v-.614Zm13.463-2.68v1.649a.994.994 0 0 1-.302.729.99.99 0 0 1-.729.302c-.285 0-.53-.1-.734-.302a.99.99 0 0 1-.302-.729v-1.649h-.613v1.649c0 .452.161.839.483 1.161.322.322.71.484 1.166.484.452 0 .839-.162 1.161-.484.322-.322.483-.709.483-1.161v-1.649h-.613ZM22.23 96.855c-.453 0-.84-.162-1.162-.484a1.583 1.583 0 0 1-.483-1.161c0-.455.161-.844.483-1.166a1.584 1.584 0 0 1 1.162-.483c.455 0 .843.161 1.165.483.323.322.484.711.484 1.166 0 .452-.161.839-.484 1.161-.322.322-.71.484-1.165.484Zm3.795-3.298c-.384 0-.729.125-1.036.376v-1.826h-.613v3.099c0 .452.161.839.483 1.161a1.59 1.59 0 0 0 1.166.483c.452 0 .839-.161 1.161-.483.322-.322.483-.709.483-1.161 0-.456-.161-.844-.483-1.166a1.583 1.583 0 0 0-1.161-.483Zm10.313 2.726a.99.99 0 0 1-.729-.302.994.994 0 0 1-.302-.729c0-.285.101-.53.302-.734a.994.994 0 0 1 .729-.302c.285 0 .53.101.734.302.201.204.302.449.302.734a.994.994 0 0 1-.302.729 1.006 1.006 0 0 1-.734.302Zm-19.432-.037a.997.997 0 0 1-.73-.302.994.994 0 0 1-.302-.729c0-.285.101-.53.302-.734a.997.997 0 0 1 .73-.302c.288 0 .532.101.733.302.202.204.302.449.302.734a.99.99 0 0 1-.302.729.998.998 0 0 1-.733.302Zm5.324-2.072a.997.997 0 0 0-.73.302 1.011 1.011 0 0 0-.302.734c0 .285.101.528.302.729a.994.994 0 0 0 .73.302c.284 0 .528-.1.729-.302a.986.986 0 0 0 .306-.729c0-.285-.102-.529-.306-.734a.995.995 0 0 0-.729-.302Zm3.795 2.063a1 1 0 0 1-.734-.302.995.995 0 0 1-.302-.729c0-.285.101-.53.302-.734a.996.996 0 0 1 .734-.302c.285 0 .528.1.729.302.201.204.302.449.302.734a.995.995 0 0 1-.302.729.994.994 0 0 1-.729.302Zm2.34-1.545v.613h1.649v-.613h-1.649Z" style="fill:#4460ff;fill-rule:nonzero" transform="matrix(41.54498 0 0 41.54498 393.9 -2282.16)"/></svg>